<?xml version="1.0" encoding="UTF-8"?><svg id="Layer_2" xmlns="http://www.w3.org/2000/svg" viewBox="0 0 230.75 68.59"><g id="Layer_1-2"><g><path d="M19.02,38.08c-.39,.31-.69,.68-.94,1.08-.25,.4-.43,.84-.56,1.28-.27,.9-.34,1.84-.35,2.81-.01,.96,.13,1.85,.38,2.69,.13,.42,.29,.83,.49,1.22,.2,.4,.43,.78,.72,1.16,.29,.38,.63,.74,.98,1.06,.35,.32,.73,.61,1.12,.86,.78,.49,1.63,.85,2.56,1.03,.46,.09,.94,.14,1.43,.14,.49,0,.97-.04,1.44-.13,.95-.18,1.86-.55,2.69-1.15,.04-.03,.1-.08,.19-.14,.04-.03,.09-.06,.15-.1,.05-.04,.11-.08,.17-.13,.13-.09,.26-.21,.42-.34,.15-.14,.33-.29,.49-.47,.35-.35,.72-.79,1.06-1.32,.16-.27,.34-.56,.48-.88,.08-.16,.14-.33,.22-.5,.03-.09,.06-.18,.09-.26,.02-.04,.03-.09,.05-.13,.01-.05,.03-.09,.04-.14,.03-.09,.06-.18,.08-.28,.02-.1,.05-.19,.07-.29,.02-.1,.04-.2,.06-.3,.02-.1,.04-.2,.05-.31,.06-.41,.1-.84,.09-1.28-.02-.88-.16-1.81-.49-2.69-.33-.89-.81-1.73-1.47-2.5-.12-.13-.24-.26-.36-.39-.16-.17-.31-.35-.47-.52-.32-.36-.64-.72-.97-1.08-.64-.72-1.29-1.44-1.94-2.16C16.68,22.41,6.49,11.26,5.88,11.58c-.26,.13,6.03,7.17,6.32,7.55,1.41,1.86,4.04,5.05,7.26,8.85,1.61,1.9,3.37,3.96,5.21,6.08,.92,1.06,1.85,2.14,2.79,3.23,.47,.54,.94,1.09,1.42,1.63l.26,.3,.12,.13,.03,.03,.02,.02h0s.03,.06,.03,.06c.04,.06,.09,.11,.13,.17,.05,.06,.08,.12,.12,.18,.33,.46,.56,.97,.75,1.48,.17,.52,.29,1.05,.32,1.58,.03,.26,.02,.52,.02,.78-.01,.13,0,.25-.03,.38,0,.06-.01,.12-.02,.19-.01,.06-.02,.12-.03,.18-.07,.49-.21,.93-.37,1.34-.33,.81-.78,1.43-1.21,1.91-.06,.06-.11,.12-.16,.17-.06,.05-.11,.1-.16,.16-.03,.03-.05,.05-.08,.08-.03,.02-.05,.05-.08,.07-.05,.04-.1,.09-.14,.13-.1,.07-.18,.15-.26,.22-.08,.06-.15,.12-.21,.17-.89,.72-1.95,1.15-3.14,1.27-.6,.07-1.19,.03-1.75-.05-.14-.04-.28-.05-.42-.09-.07-.02-.14-.03-.21-.05-.07-.02-.14-.04-.21-.06-.27-.09-.55-.19-.81-.32-.14-.05-.26-.14-.39-.2l-.19-.12-.1-.06-.09-.06c-.06-.04-.13-.08-.19-.12-.06-.05-.12-.09-.18-.14-.03-.02-.06-.04-.09-.07l-.09-.08-.18-.15c-.06-.05-.11-.11-.17-.16-.03-.03-.06-.05-.09-.08l-.08-.08c-.05-.06-.11-.11-.16-.16-.05-.06-.1-.12-.15-.17-.03-.03-.05-.06-.08-.08l-.07-.09c-.05-.06-.1-.12-.15-.18-.08-.13-.19-.24-.27-.38-.35-.51-.62-1.09-.82-1.71-.1-.31-.17-.64-.24-.97-.05-.33-.09-.67-.1-1.02-.02-.91,0-1.82,.23-2.69,.11-.44,.27-.86,.5-1.26,.06-.1,.12-.2,.18-.29,.07-.09,.14-.19,.21-.28,.08-.09,.16-.17,.24-.26,.08-.08,.18-.16,.26-.24,.03-.03,.03-.08,0-.12-.03-.04-.09-.05-.12-.01Z" style="fill:#d44319;"/><path d="M15.96,35.08c-.57,.49-1.04,1.07-1.43,1.68-.39,.62-.7,1.28-.94,1.96-.48,1.37-.68,2.83-.71,4.35-.03,1.5,.18,2.89,.59,4.21,.21,.66,.47,1.3,.79,1.93,.32,.62,.7,1.23,1.16,1.81,.47,.59,.99,1.14,1.54,1.64,.55,.49,1.14,.93,1.76,1.31,1.24,.76,2.6,1.29,4.04,1.55,1.43,.26,2.94,.26,4.41-.03,1.47-.29,2.9-.88,4.19-1.78,.06-.05,.16-.12,.29-.21,.07-.05,.14-.1,.22-.15,.08-.06,.17-.13,.26-.2,.19-.14,.4-.32,.64-.52,.23-.21,.49-.44,.75-.72,.53-.54,1.09-1.22,1.62-2.06,.25-.42,.51-.88,.73-1.38,.12-.25,.22-.51,.32-.77,.05-.13,.09-.27,.14-.41,.02-.07,.05-.14,.07-.21,.02-.07,.04-.14,.06-.21,.04-.14,.09-.28,.12-.43,.04-.15,.07-.3,.11-.44,.03-.15,.06-.3,.09-.46,.03-.15,.05-.31,.07-.47,.09-.63,.14-1.28,.12-1.96-.03-1.34-.27-2.75-.78-4.1-.51-1.36-1.28-2.66-2.28-3.8-.14-.16-.29-.31-.43-.47-.16-.18-.32-.35-.47-.53-.32-.36-.64-.72-.96-1.08-.64-.72-1.29-1.44-1.93-2.16C19.83,19.48,9.66,8.36,9.05,8.69c-.26,.13,6.01,7.15,6.3,7.53,1.4,1.86,4.02,5.03,7.24,8.83,1.61,1.9,3.36,3.95,5.19,6.07,.92,1.06,1.85,2.13,2.78,3.22,.47,.54,.94,1.08,1.41,1.63l.16,.18,.15,.16c.09,.11,.21,.23,.27,.31l.23,.28c.08,.09,.14,.19,.21,.29,.57,.77,1,1.62,1.33,2.49,.31,.88,.53,1.78,.61,2.67,.05,.44,.05,.89,.05,1.32-.01,.22-.01,.43-.04,.64-.01,.11-.02,.21-.03,.32-.02,.1-.03,.21-.04,.31-.12,.83-.34,1.6-.61,2.3-.27,.7-.61,1.33-.96,1.88-.36,.55-.74,1.02-1.11,1.43-.1,.1-.19,.2-.27,.29-.09,.09-.19,.18-.27,.26-.04,.04-.09,.09-.13,.13-.04,.04-.09,.08-.13,.11-.08,.08-.17,.15-.24,.22-.17,.13-.31,.26-.45,.36-.14,.1-.26,.2-.37,.28-1.58,1.19-3.46,1.85-5.42,1.99-.98,.08-1.95,0-2.9-.18-.23-.06-.47-.1-.7-.17-.12-.03-.23-.06-.35-.1l-.34-.11c-.45-.16-.9-.35-1.33-.57-.22-.1-.43-.24-.64-.35-.1-.06-.21-.13-.31-.2l-.16-.1-.15-.11-.3-.21-.29-.23s-.1-.08-.15-.12l-.14-.12-.28-.25-.27-.26s-.09-.09-.14-.13l-.13-.14-.26-.27-.24-.29s-.08-.09-.12-.14l-.11-.15c-.08-.1-.16-.2-.23-.3-.14-.21-.29-.41-.42-.63-1.07-1.72-1.7-3.8-1.7-6.01,0-1.45,.16-2.86,.59-4.21,.22-.67,.5-1.33,.87-1.94,.1-.15,.19-.31,.29-.45,.11-.14,.22-.29,.33-.43,.12-.14,.24-.27,.36-.41,.13-.13,.26-.26,.4-.38,.05-.04,.05-.11,.02-.15-.03-.04-.1-.04-.14,.02Z" style="fill:#d44319;"/><path d="M12.9,32.07c-.75,.68-1.39,1.45-1.92,2.29-.54,.83-.97,1.72-1.31,2.64-.68,1.85-1.01,3.81-1.07,5.88-.06,2.04,.23,3.94,.8,5.74,.29,.9,.65,1.78,1.09,2.63,.44,.85,.97,1.68,1.6,2.47,2.56,3.23,6.13,5.37,10.03,6.05,1.94,.34,3.96,.33,5.95-.07,1.99-.4,3.94-1.2,5.7-2.41,.09-.06,.22-.16,.4-.28,.09-.06,.19-.13,.3-.21,.11-.08,.23-.17,.35-.27,.26-.19,.54-.44,.86-.71,.31-.28,.66-.6,1-.97,.71-.73,1.47-1.66,2.17-2.8,.34-.57,.69-1.19,.99-1.87,.16-.33,.29-.69,.43-1.05,.07-.18,.13-.37,.19-.55,.03-.09,.06-.19,.09-.28,.03-.1,.05-.19,.08-.29,.05-.19,.12-.39,.16-.58,.05-.2,.09-.4,.14-.6,.04-.2,.08-.41,.12-.62,.04-.21,.07-.42,.1-.63,.11-.85,.17-1.73,.14-2.63-.05-1.8-.38-3.69-1.08-5.52-.69-1.82-1.74-3.58-3.08-5.11-.17-.18-.34-.36-.51-.54-.17-.18-.32-.36-.48-.54-.32-.36-.64-.72-.96-1.07-.64-.72-1.28-1.44-1.93-2.15C22.97,16.56,12.83,5.47,12.23,5.8c-.26,.13,5.99,7.13,6.28,7.51,1.4,1.85,4.01,5.02,7.22,8.81,1.6,1.89,3.36,3.94,5.18,6.05,.91,1.05,1.84,2.13,2.78,3.21,.47,.54,.94,1.08,1.41,1.62,.12,.14,.23,.26,.35,.39,.11,.13,.24,.26,.34,.39l.32,.39c.11,.13,.2,.27,.3,.4,.81,1.08,1.43,2.28,1.91,3.5,.46,1.23,.76,2.5,.89,3.76,.07,.63,.08,1.25,.08,1.86-.01,.31-.02,.61-.05,.91-.01,.15-.02,.3-.04,.45-.02,.15-.04,.29-.06,.44-.16,1.17-.47,2.26-.85,3.26-.39,1-.86,1.89-1.36,2.68-.51,.79-1.05,1.46-1.57,2.03-.13,.14-.26,.28-.39,.41-.13,.13-.26,.25-.38,.37-.06,.06-.12,.12-.18,.18-.06,.05-.12,.11-.18,.16-.12,.11-.24,.21-.35,.31-.23,.18-.44,.36-.63,.51-.2,.15-.37,.28-.52,.39-2.27,1.65-4.97,2.55-7.69,2.7-1.36,.09-2.72-.03-4.05-.31-.33-.08-.66-.15-.98-.25-.16-.05-.33-.09-.49-.15l-.48-.17c-.63-.24-1.26-.5-1.86-.83-.31-.15-.59-.33-.89-.51-.14-.09-.29-.19-.43-.28l-.21-.14-.21-.15-.41-.3-.4-.32c-.07-.05-.13-.11-.2-.16l-.19-.17c-.13-.12-.26-.23-.38-.35l-.37-.36c-.06-.06-.12-.12-.18-.18l-.18-.19-.35-.38-.33-.4c-.05-.07-.11-.13-.17-.2l-.16-.21c-.1-.14-.21-.28-.31-.42-.19-.29-.4-.58-.57-.88-1.46-2.41-2.29-5.3-2.25-8.32,.03-1.99,.31-3.91,.94-5.73,.32-.91,.73-1.79,1.25-2.61,.13-.2,.26-.41,.41-.61,.15-.2,.29-.39,.45-.59,.16-.19,.32-.37,.49-.56,.17-.18,.35-.35,.53-.53,.06-.06,.08-.14,.05-.18-.03-.04-.11-.03-.17,.04Z" style="fill:#d44319;"/><path d="M9.83,29.06c-.93,.86-1.73,1.84-2.41,2.89-.68,1.05-1.24,2.16-1.69,3.32-.89,2.32-1.34,4.8-1.43,7.42-.04,1.29,.03,2.53,.2,3.74,.17,1.21,.44,2.38,.81,3.53,.37,1.14,.83,2.26,1.39,3.34,.57,1.08,1.24,2.13,2.03,3.13,.81,1.02,1.7,1.95,2.66,2.79,.96,.84,1.98,1.58,3.06,2.22,2.16,1.29,4.53,2.17,6.99,2.59,1.23,.21,2.47,.31,3.72,.29,1.25-.02,2.51-.14,3.76-.4,2.5-.51,4.98-1.52,7.2-3.04,.11-.08,.28-.2,.5-.35,.11-.08,.24-.17,.38-.27,.14-.1,.28-.22,.45-.34,.33-.24,.68-.55,1.08-.89,.39-.36,.82-.75,1.26-1.22,.89-.93,1.84-2.1,2.73-3.54,.43-.72,.86-1.51,1.24-2.36,.2-.42,.36-.87,.54-1.32,.08-.23,.16-.46,.24-.7,.04-.12,.08-.24,.12-.35,.03-.12,.07-.24,.1-.36,.07-.24,.14-.49,.2-.74,.06-.25,.12-.5,.17-.76,.05-.25,.1-.51,.14-.77,.05-.26,.08-.52,.12-.79,.14-1.06,.21-2.17,.17-3.3-.07-2.26-.49-4.63-1.37-6.93-.88-2.29-2.2-4.5-3.89-6.41-.19-.21-.39-.41-.58-.62l-.07-.08-.06-.07-.12-.13-.24-.27c-.32-.36-.64-.71-.96-1.07-.64-.72-1.28-1.43-1.92-2.15C26.11,13.63,16,2.57,15.4,2.9c-.25,.13,5.98,7.11,6.26,7.49,1.39,1.85,4,5.01,7.2,8.78,1.6,1.89,3.35,3.93,5.16,6.04,.91,1.05,1.84,2.12,2.77,3.2,.47,.54,.94,1.08,1.41,1.62,.05,.06,.13,.14,.19,.21l.2,.22c.14,.15,.27,.29,.41,.46l.42,.5c.14,.17,.26,.35,.4,.52,1.04,1.39,1.87,2.93,2.49,4.52,.6,1.59,1,3.23,1.17,4.85,.09,.81,.12,1.61,.11,2.4-.02,.39-.02,.79-.06,1.17-.02,.19-.03,.39-.05,.58-.02,.19-.05,.38-.07,.57-.2,1.51-.59,2.93-1.09,4.22-.5,1.29-1.11,2.46-1.76,3.48-.66,1.02-1.36,1.9-2.04,2.64-.17,.18-.34,.36-.5,.53-.17,.17-.33,.32-.49,.48-.08,.08-.16,.15-.24,.23-.08,.07-.16,.14-.24,.21-.16,.14-.31,.27-.45,.39-.3,.24-.57,.46-.82,.65-.26,.19-.48,.36-.68,.5-.74,.52-1.52,.99-2.32,1.4-.8,.4-1.63,.75-2.47,1.04-1.69,.57-3.43,.9-5.18,.98-1.74,.1-3.49-.07-5.19-.44-.42-.11-.85-.2-1.26-.33-.21-.06-.42-.12-.62-.19l-.62-.22c-.82-.31-1.62-.66-2.38-1.08-.39-.2-.76-.43-1.14-.66-.18-.12-.37-.24-.55-.36l-.27-.18-.26-.19-.53-.39-.51-.42c-.08-.07-.17-.14-.25-.21l-.24-.22c-.16-.15-.33-.29-.49-.44l-.47-.47c-.08-.08-.16-.16-.23-.24l-.22-.25c-.15-.16-.3-.33-.44-.5l-.42-.52c-.07-.09-.14-.17-.21-.26l-.2-.27c-.13-.18-.27-.36-.39-.54-.25-.37-.5-.74-.73-1.14-1.85-3.1-2.87-6.79-2.79-10.63,.03-1.27,.14-2.5,.36-3.71,.21-1.21,.52-2.39,.95-3.54,.42-1.14,.96-2.25,1.62-3.29,.17-.26,.34-.52,.52-.77,.18-.25,.37-.49,.57-.74,.2-.24,.41-.47,.62-.7,.21-.23,.44-.45,.66-.67,.08-.08,.11-.17,.09-.21-.03-.04-.12-.02-.2,.07Z" style="fill:#d44319;"/><path d="M6.77,26.05c-1.11,1.05-2.08,2.23-2.9,3.49-.83,1.26-1.51,2.6-2.06,4C.7,36.33,.13,39.33,.02,42.49c-.05,1.56,.03,3.06,.24,4.53,.21,1.46,.53,2.88,.98,4.27,.44,1.38,1.01,2.73,1.7,4.04,.69,1.31,1.51,2.58,2.47,3.78,.25,.31,.5,.61,.76,.91,.13,.15,.26,.29,.39,.44,.13,.14,.27,.28,.4,.43l.2,.21,.21,.2c.14,.13,.28,.27,.41,.4,.27,.27,.56,.52,.85,.78,1.16,1.01,2.4,1.91,3.71,2.68,2.62,1.55,5.5,2.61,8.47,3.1,1.48,.25,2.98,.36,4.49,.34,1.5-.02,3.03-.18,4.54-.49,3.02-.61,6.02-1.84,8.7-3.67,.13-.09,.34-.24,.61-.43,.14-.1,.29-.2,.46-.32,.16-.13,.34-.26,.54-.41,.39-.29,.82-.66,1.3-1.08,.47-.43,.98-.9,1.51-1.47,1.07-1.12,2.22-2.54,3.28-4.28,.52-.88,1.04-1.82,1.49-2.85,.24-.51,.44-1.05,.65-1.59,.1-.27,.19-.56,.29-.84,.05-.14,.09-.28,.14-.43,.04-.14,.08-.29,.12-.44,.08-.29,.17-.59,.24-.89,.07-.3,.14-.6,.21-.91,.06-.31,.12-.62,.17-.93,.06-.31,.1-.63,.14-.95,.16-1.28,.25-2.61,.2-3.98-.08-2.72-.6-5.58-1.67-8.34-.53-1.38-1.19-2.74-1.98-4.03-.79-1.3-1.7-2.54-2.72-3.68-.22-.23-.43-.47-.65-.7l-.08-.09-.06-.07-.12-.13-.24-.27c-.32-.36-.64-.71-.95-1.07-.64-.71-1.28-1.43-1.91-2.14C29.25,10.71,19.17-.32,18.57,0c-.26,.13,5.96,7.09,6.24,7.47,1.39,1.84,3.99,4.99,7.18,8.76,1.59,1.88,3.34,3.92,5.15,6.02,.91,1.05,1.83,2.12,2.76,3.19,.47,.54,.93,1.07,1.4,1.61l.04,.05,.02,.03,.03,.03,.11,.13,.23,.25,.23,.25,.06,.06,.03,.03,.03,.04,.13,.15,.51,.61c.17,.2,.33,.42,.49,.63,1.28,1.7,2.3,3.59,3.07,5.53,.75,1.95,1.24,3.96,1.45,5.94,.12,.99,.15,1.97,.14,2.94-.02,.48-.02,.96-.07,1.43-.02,.24-.04,.47-.06,.71-.03,.23-.06,.47-.09,.7-.25,1.85-.72,3.59-1.33,5.18-.61,1.59-1.36,3.02-2.16,4.28-.81,1.26-1.67,2.33-2.5,3.24-.21,.22-.42,.44-.62,.65-.21,.2-.41,.4-.61,.59-.1,.09-.19,.19-.29,.27-.1,.09-.2,.17-.29,.26-.19,.17-.37,.33-.55,.48-.37,.29-.7,.57-1.01,.8-.31,.23-.59,.44-.84,.61-.91,.64-1.87,1.2-2.86,1.7-.99,.49-2.01,.91-3.04,1.26-2.07,.68-4.22,1.08-6.34,1.17-2.12,.1-4.26-.1-6.34-.57-.52-.13-1.04-.25-1.55-.42-.25-.08-.51-.15-.76-.24l-.75-.27c-1-.38-1.98-.82-2.91-1.34-.47-.25-.93-.53-1.38-.81-.22-.14-.44-.29-.67-.44l-.33-.23-.32-.24-.64-.48-.62-.51c-.1-.09-.21-.17-.31-.26l-.3-.27c-.2-.18-.39-.36-.59-.54l-.57-.57c-.09-.1-.19-.19-.28-.29l-.27-.3c-.18-.2-.36-.4-.54-.61l-.51-.63c-.08-.11-.17-.21-.25-.32l-.24-.33c-.16-.22-.32-.44-.48-.67-.3-.46-.61-.91-.88-1.39-2.24-3.79-3.45-8.28-3.33-12.94,.04-1.53,.2-3.03,.47-4.49,.27-1.46,.67-2.89,1.19-4.27,.53-1.38,1.19-2.71,1.99-3.97,.21-.31,.41-.62,.63-.93,.22-.3,.45-.6,.69-.89,.24-.29,.49-.57,.74-.85,.26-.28,.53-.54,.8-.81,.1-.09,.14-.2,.12-.24-.03-.05-.13-.01-.23,.1Z" style="fill:#d44319;"/></g><text transform="translate(58.55 57.78)" style="fill:#4d4d4d; font-family:FuturaBT-Light, &apos;Futura Lt BT&apos;; font-size:8.4px;"><tspan x="0" y="0" style="letter-spacing:.04em;">ABDUL LATIF JAMEEL POVERTY ACTION LAB</tspan></text><path d="M66.93,15.68h2.56v22.09c0,4.53-2.13,6.81-5.99,6.81-2.4,0-4.25-1.02-5.44-2.91l1.81-1.65c1.06,1.42,2.21,2.13,3.54,2.13,2.8,0,3.51-2.09,3.51-6.03V15.68Z" style="fill:#191717;"/><path d="M86.86,32.1v2.48h-8.39v-2.48h8.39Z" style="fill:#191717;"/><path d="M95.36,15.68h5.47c2.68,0,4.77,.08,6.62,1.42,1.73,1.26,2.8,3.58,2.8,6.34,0,5.55-3.15,7.76-9.37,7.76h-2.95v12.64h-2.56V15.68Zm4.29,13.27c5,0,7.88-.55,7.88-5.32,0-2.01-.71-3.66-1.89-4.61-1.3-1.06-3.19-1.1-5.99-1.1h-1.73v11.03h1.73Z" style="fill:#191717;"/><path d="M126.16,14.58l11.85,29.26h-2.8l-3.58-9.53h-11.5l-3.74,9.53h-2.6l12.37-29.26Zm4.65,17.53l-4.8-12.25-5,12.25h9.81Z" style="fill:#191717;"/><path d="M146.76,15.68h2.56v25.76h9.65v2.4h-12.21V15.68Z" style="fill:#191717;"/></g></svg>